<svg xmlns="http://www.w3.org/2000/svg" width="112" height="29" viewBox="0 0 112 29" fill="none"><path d="M41.5784 4.02153L46.7093 17.2131H44.4046L43.035 13.5605H37.926L36.5565 17.2131H34.2736L39.4044 4.02051H41.5784V4.02153ZM38.6434 11.6271H42.2959L40.4691 6.75002L38.6434 11.6271Z" fill="#333333"></path><path d="M48.5132 4.02148H53.0137C56.9491 4.02148 59.4923 6.59935 59.4923 10.6178C59.4923 14.6362 56.9491 17.2131 53.0137 17.2131H48.5132V4.02148ZM52.9266 15.2151C55.731 15.2151 57.2311 13.4323 57.2311 10.6168C57.2311 7.78071 55.731 5.99689 52.9266 5.99689H50.7743V15.2141H52.9266V15.2151Z" fill="#333333"></path><path d="M65.0793 17.2131L60.0355 4.02148H62.4055L66.1886 14.3135L69.9716 4.02148H72.2763L67.2315 17.2131H65.0793Z" fill="#333333"></path><path d="M76.3413 17.2131H74.0802V4.02148H76.3413V17.2131Z" fill="#333333"></path><path d="M78.645 13.9263C79.8621 14.8935 81.3187 15.4519 82.8842 15.4519C84.4061 15.4519 85.4709 14.915 85.4709 13.7326C85.4709 12.7009 84.797 12.2931 83.6016 11.8423L81.6671 11.1548C79.8839 10.5103 78.5361 9.56459 78.5361 7.39451C78.5361 5.07381 80.5795 3.8064 83.0366 3.8064C84.5368 3.8064 85.9063 4.19267 86.9721 4.88017V7.17935C85.8628 6.34123 84.6456 5.76131 83.0802 5.76131C81.7324 5.76131 80.7319 6.27668 80.7319 7.35148C80.7319 8.31869 81.3623 8.70496 82.4716 9.09226L84.6239 9.86582C86.7108 10.6179 87.6677 11.7777 87.6677 13.6906C87.6677 16.0974 85.6025 17.4293 82.8853 17.4293C81.1021 17.4293 79.5801 16.914 78.646 16.2695V13.9263H78.645Z" fill="#333333"></path><path d="M98.5815 4.02148V5.99792H92.0812V9.47845H97.9719V11.4334H92.0801V15.2151H98.5805V17.2131H89.8625V4.02148H98.5815Z" fill="#333333"></path><path d="M103.19 11.8637V17.2131H100.929V4.02148H106.081C108.842 4.02148 110.625 5.39648 110.625 7.97435C110.625 10.1875 109.321 11.4549 107.212 11.7776L111.082 17.2131H108.517L104.799 11.8627H103.19V11.8637ZM103.19 9.99382H106.038C107.538 9.99382 108.386 9.19874 108.386 7.97435C108.386 6.74997 107.538 5.95489 106.038 5.95489H103.19V9.99382Z" fill="#333333"></path><path d="M29.3408 0H0V29H29.3408V0Z" fill="#FCD0B1"></path><path d="M7.57859 4.67518V10.0748H9.18657C10.9273 10.0748 11.0154 9.79199 11.147 8.44158H11.654V12.3822H11.147C11.0154 11.0328 10.9273 10.7715 9.18657 10.7715H7.57859V15.4528C7.57859 16.4108 7.84296 16.6281 9.62719 16.6281V17.2162H3.34869V16.6281C4.64876 16.6281 5.11115 16.5625 5.11115 15.5174V5.71924C5.11115 4.67416 4.64876 4.60859 3.34869 4.60859V4.02047H11.6976C12.8214 4.02047 13.2174 3.97744 13.5699 3.91187V7.98359H13.0194C12.7333 5.15367 12.1599 4.67416 9.60438 4.67416H7.57859V4.67518Z" fill="#333333"></path><path d="M24.974 4.02157C26.0978 4.02157 26.4939 3.97854 26.8464 3.91296V7.98366H26.2959C26.0097 5.15374 25.4364 4.67423 22.8808 4.67423H22.1759V15.4509C22.1759 16.4744 22.5729 16.6261 24.2245 16.6261V17.2142H17.638V16.6261C19.2906 16.6261 19.7084 16.4734 19.7084 15.4509V4.67423H19.0034C16.4479 4.67423 15.8756 5.15272 15.5894 7.98366H15.0389V3.91296C15.3914 3.97854 15.7875 4.02157 16.9113 4.02157H24.974Z" fill="#333333"></path></svg>